:FULLY-SPECIFIED
:DEGREES
1898
root 4.78574 16.4792 -2.15178 -9.63626 -87.5484 26.79
lowerback -7.22488 1.10061 1.95436
upperback -4.44768 1.23157 -0.775221
thorax -0.480834 0.518121 -1.81147
lowerneck -15.2151 -2.15485 1.76386
upperneck 20.254 -3.853 1.03031
head 8.83936 -1.63395 -0.416246
rclavicle -1.59028e-014 2.0773e-014
rhumerus -26.7903 2.6998 -81.7846
rradius 39.3436
rwrist 12.023
rhand -27.5841 -5.18243
rfingers 7.12502
rthumb -0.984271 -35.1599
lclavicle -1.59028e-014 2.0773e-014
lhumerus -47.3805 -5.66415 87.6095
lradius 36.475
lwrist -6.80841
lhand -39.4472 -2.78236
lfingers 7.12502
lthumb -12.4348 26.8278
rfemur -9.14291 9.35816 26.0318
rtibia 14.3818
rfoot -17.1796 -21.6203
rtoes -13.2979
lfemur -45.1357 -31.9575 -4.44549
ltibia 11.2994
lfoot -13.2109 38.6282
ltoes -7.70612
1899
root 4.78185 16.4675 -2.14544 -8.89435 -87.513 26.0221
lowerback -7.28157 1.09395 1.80815
upperback -4.43629 1.23014 -0.745501
thorax -0.441155 0.521036 -1.69784
lowerneck -15.151 -2.20764 1.65571
upperneck 20.3844 -3.94305 1.18228
head 8.87791 -1.66876 -0.358476
rclavicle -3.57812e-014 9.0447e-015
rhumerus -26.858 2.55199 -81.7845
rradius 39.4576
rwrist 11.9298
rhand -27.6547 -5.23946
rfingers 7.12502
rthumb -1.05246 -35.2166
lclavicle -3.57812e-014 9.0447e-015
lhumerus -47.3281 -5.94474 87.772
lradius 36.5185
lwrist -6.90046
lhand -39.2281 -2.76567
lfingers 7.12502
lthumb -12.2236 26.8571
rfemur -8.68274 8.91061 26.1316
rtibia 14.5959
rfoot -17.3101 -21.2145
rtoes -14.1072
lfemur -44.1441 -30.5236 -6.17961
ltibia 11.1585
lfoot -12.38 37.3177
ltoes -7.84771
1900
root 4.77568 16.4484 -2.13981 -6.55196 -87.4659 23.6532
lowerback -7.37601 1.04372 1.70832
upperback -4.40665 1.16757 -0.683754
thorax -0.36405 0.4934 -1.58083
lowerneck -15.1949 -2.21743 1.64046
upperneck 20.5502 -3.97531 1.22875
head 8.94438 -1.67869 -0.346626
rclavicle -2.22639e-014 5.96354e-016
rhumerus -26.8737 2.32277 -81.8403
rradius 39.5456
rwrist 11.9847
rhand -27.8981 -5.31021
rfingers 7.12502
rthumb -1.28753 -35.2861
lclavicle -2.22639e-014 5.96354e-016
lhumerus -47.2185 -6.10778 87.8369
lradius 36.4824
lwrist -7.26395
lhand -39.364 -2.98268
lfingers 7.12502
lthumb -12.3547 26.6323
rfemur -8.29346 8.5449 26.2997
rtibia 15.0241
rfoot -17.6168 -20.839
rtoes -14.7269
lfemur -43.0377 -28.6256 -8.22843
ltibia 11.3487
lfoot -11.1493 35.0027
ltoes -8.70574
1901
root 4.76931 16.4286 -2.1331 -3.17577 -87.4273 20.2039
lowerback -7.33739 1.0534 1.73464
upperback -4.40348 1.18015 -0.678432
thorax -0.381221 0.499434 -1.5898
lowerneck -15.2287 -2.2678 1.6291
upperneck 20.6921 -4.08222 1.35293
head 9.00283 -1.71527 -0.317707
rclavicle -3.97569e-015 3.32964e-015
rhumerus -27.0557 1.93686 -81.9163
rradius 39.6262
rwrist 11.9149
rhand -27.8741 -5.16613
rfingers 7.12502
rthumb -1.26428 -35.1421
lclavicle -3.97569e-015 3.32964e-015
lhumerus -47.0797 -6.47718 87.9167
lradius 36.4771
lwrist -7.47601
lhand -39.3402 -3.11056
lfingers 7.12502
lthumb -12.3317 26.5058
rfemur -7.98247 8.07111 26.5195
rtibia 15.6855
rfoot -17.9254 -20.3943
rtoes -15.6723
lfemur -41.7644 -26.0059 -10.7538
ltibia 11.7971
lfoot -9.74956 31.6446
ltoes -9.90762
1902
root 4.75914 16.4019 -2.12601 -0.768814 -87.4362 17.8013
lowerback -7.43393 1.02104 1.64886
upperback -4.44918 1.13784 -0.628429
thorax -0.379326 0.478861 -1.49211
lowerneck -15.1234 -2.27636 1.67051
upperneck 20.7908 -4.11039 1.34883
head 9.01662 -1.72719 -0.329052
rclavicle 0 9.93923e-015
rhumerus -27.3417 1.69905 -82.0074
rradius 39.7473
rwrist 12.0066
rhand -28.1026 -5.22094
rfingers 7.12502
rthumb -1.48504 -35.1955
lclavicle 0 9.93923e-015
lhumerus -47.0542 -6.67869 87.966
lradius 36.5271
lwrist -7.71414
lhand -39.2617 -3.07639
lfingers 7.12502
lthumb -12.256 26.5445
rfemur -7.79328 7.58245 26.6791
rtibia 16.4303
rfoot -18.205 -19.8393
rtoes -17.3501
lfemur -40.9117 -23.7286 -12.8203
ltibia 12.6225
lfoot -9.00917 28.7504
ltoes -10.6901
1903
root 4.74188 16.3769 -2.11548 1.37054 -87.5373 15.5682
lowerback -7.50535 1.08684 1.65705
upperback -4.37421 1.22586 -0.628772
thorax -0.25896 0.525532 -1.48894
lowerneck -15.252 -2.3275 1.57335
upperneck 20.8485 -4.19689 1.49563
head 9.06603 -1.75695 -0.276139
rclavicle 7.95139e-016 1.78906e-014
rhumerus -27.536 1.22537 -82.0427
rradius 39.8367
rwrist 11.8878
rhand -28.1836 -4.9589
rfingers 7.12502
rthumb -1.56327 -34.9329
lclavicle 7.95139e-016 1.78906e-014
lhumerus -46.8079 -6.92294 88.0019
lradius 36.4823
lwrist -8.03917
lhand -39.2044 -3.14813
lfingers 7.12502
lthumb -12.2008 26.476
rfemur -7.41219 6.89317 26.8099
rtibia 17.0542
rfoot -18.4173 -19.0193
rtoes -18.4837
lfemur -40.0632 -21.6017 -14.6981
ltibia 13.6336
lfoot -8.95554 26.1864
ltoes -11.2324
1904
root 4.72318 16.3551 -2.10195 2.67958 -87.6716 14.1676
lowerback -7.546 1.09219 1.59083
upperback -4.40592 1.23466 -0.613726
thorax -0.270543 0.530156 -1.43529
lowerneck -15.162 -2.32059 1.65376
upperneck 20.9199 -4.20399 1.45876
head 9.07157 -1.75942 -0.302405
rclavicle 8.74653e-015 1.15295e-014
rhumerus -27.9673 1.0895 -82.2035
rradius 40.0304
rwrist 11.6496
rhand -28.2172 -5.14838
rfingers 7.12502
rthumb -1.59572 -35.1222
lclavicle 8.74653e-015 1.15295e-014
lhumerus -46.8417 -7.04582 88.032
lradius 36.6269
lwrist -7.89722
lhand -39.2008 -3.05294
lfingers 7.12502
lthumb -12.1973 26.5714
rfemur -7.11093 6.36681 26.8568
rtibia 17.7718
rfoot -18.3665 -18.3232
rtoes -19.9061
lfemur -39.4111 -19.9939 -16.0479
ltibia 14.5463
lfoot -8.6309 24.2403
ltoes -10.6121
1905
root 4.70168 16.353 -2.0851 4.6536 -87.8568 12.047
lowerback -7.48883 1.11137 1.63459
upperback -4.46362 1.25656 -0.613697
thorax -0.360048 0.538236 -1.45974
lowerneck -14.9273 -2.31312 1.61812
upperneck 20.883 -4.19917 1.53284
head 9.01833 -1.75668 -0.267142
rclavicle 1.59028e-015 -7.70291e-015
rhumerus -28.4371 0.913278 -82.3898
rradius 40.0551
rwrist 11.431
rhand -28.1301 -5.15705
rfingers 7.12502
rthumb -1.51152 -35.1314
lclavicle 1.59028e-015 -7.70291e-015
lhumerus -46.9118 -7.0361 87.9834
lradius 36.6888
lwrist -8.00365
lhand -39.1327 -3.0781
lfingers 7.12502
lthumb -12.1316 26.5502
rfemur -6.78664 5.91061 26.8989
rtibia 18.5689
rfoot -18.2605 -17.6316
rtoes -22.2559
lfemur -39.1246 -19.6343 -16.3456
ltibia 15.3039
lfoot -7.17956 23.8764
ltoes -7.30092
1906
root 4.67822 16.3539 -2.06641 -0.272308 -88.039 16.9011
lowerback -7.52305 1.10726 1.40387
upperback -4.49812 1.26302 -0.67364
thorax -0.37987 0.543717 -1.39128
lowerneck -14.7949 -2.30514 1.61472
upperneck 20.8289 -4.18816 1.55369
head 8.97591 -1.7525 -0.255787
rclavicle 7.95139e-015 3.90115e-015
rhumerus -28.7487 0.60517 -82.5541
rradius 39.8852
rwrist 11.4171
rhand -28.2015 -5.08972
rfingers 7.12502
rthumb -1.58055 -35.0636
lclavicle 7.95139e-015 3.90115e-015
lhumerus -46.8663 -7.0527 87.9956
lradius 36.7309
lwrist -7.54223
lhand -39.2031 -3.18921
lfingers 7.12502
lthumb -12.1995 26.435
rfemur -6.68257 5.27413 26.5967
rtibia 19.6387
rfoot -18.1814 -16.6251
rtoes -23.7702
lfemur -38.9607 -19.4366 -16.7489
ltibia 15.8205
lfoot -5.23746 24.0944
ltoes -8.89218
1907
root 4.65206 16.3617 -2.04788 -8.83283 -88.1911 25.4747
lowerback -7.68211 1.07324 1.13004
upperback -4.55523 1.22889 -0.775927
thorax -0.355629 0.528349 -1.34336
lowerneck -14.7209 -2.24689 1.6667
upperneck 20.8676 -4.11562 1.52301
head 8.97383 -1.71915 -0.265574
rclavicle -6.36111e-015 6.27414e-015
rhumerus -29.1351 0.31938 -82.808
rradius 39.5822
rwrist 11.7677
rhand -28.3514 -4.97263
rfingers 7.12502
rthumb -1.72533 -34.9454
lclavicle -6.36111e-015 6.27414e-015
lhumerus -46.7981 -6.94353 87.882
lradius 36.6431
lwrist -7.43248
lhand -39.3171 -3.13572
lfingers 7.12502
lthumb -12.3094 26.482
rfemur -6.89284 4.69674 26.1543
rtibia 21.0827
rfoot -18.0994 -15.4751
rtoes -25.1563
lfemur -38.7453 -19.026 -17.3481
ltibia 16.1608
lfoot -3.86158 23.9668
ltoes -10.4519
